ply
format ascii 1.0
element vertex 28
property float x
property float y
property float z
end_header
-0.140992 -0.000169061 -0.586715
-0.0957298 -0.000231129 -0.581595
-0.0173535 -0.726937 -0.00850657
-0.0251478 -0.740233 -0.0134903
0.00188846 -0.722193 -0.00759666
-0.152155 -0.000100777 -0.587131
-0.0852728 -1.01003e-005 -0.576096
-0.0739584 0.00036376 -0.576803
-0.0630442 3.65224e-005 -0.571847
-0.0518992 -0.000236989 -0.56347
-0.0047006 -0.0225841 -0.53771
-0.034804 -0.0225059 -0.55595
-0.0454195 -0.0220179 -0.556525
0.00872277 -0.0247451 -0.551586
0.0196662 -0.0253231 -0.550119
0.0301527 -0.0258347 -0.547189
-0.0103491 -0.000242716 -0.550902
-6.02269e-005 -0.00033777 -0.55162
0.0095305 -0.00235511 -0.542395
0.0221585 -0.713932 -0.00746103
0.0133725 -0.726161 -0.0102254
0.0448922 -0.736079 -0.0121166
0.0552327 -0.734359 -0.0113779
0.0662997 -0.737804 -0.0127758
0.077362 -0.742271 -0.0149512
0.0863774 -0.729797 -0.00963355
0.0966439 -0.729507 -0.00922957
0.106888 -0.72737 -0.00787482
