ply
format ascii 1.0
element vertex 38
property float x
property float y
property float z
property uchar diffuse_red
property uchar diffuse_green
property uchar diffuse_blue
end_header
-0.00749739 -0.726389 -0.00885068 0 255 0
-0.118304 -0.000203022 -0.584102 0 255 0
-0.107058 -8.42641e-005 -0.579028 0 255 0
-0.129439 7.22858e-005 -0.582022 0 255 0
-0.140992 -0.000169061 -0.586715 255 0 255
-0.0957298 -0.000231129 -0.581595 255 0 255
-0.0173535 -0.726937 -0.00850657 255 0 255
-0.0251478 -0.740233 -0.0134903 255 0 255
0.00188846 -0.722193 -0.00759666 255 0 255
-0.152155 -0.000100777 -0.587131 255 0 255
-0.0852728 -1.01003e-005 -0.576096 255 0 255
-0.0739584 0.00036376 -0.576803 255 0 255
-0.0630442 3.65224e-005 -0.571847 255 0 255
-0.0518992 -0.000236989 -0.56347 255 0 255
-0.024138 -0.022992 -0.553996 0 255 0
-0.0135153 -0.0233797 -0.550469 0 255 0
-0.0047006 -0.0225841 -0.53771 255 0 255
-0.034804 -0.0225059 -0.55595 255 0 255
-0.0454195 -0.0220179 -0.556525 255 0 255
0.00872277 -0.0247451 -0.551586 255 0 255
0.0196662 -0.0253231 -0.550119 255 0 255
0.0301527 -0.0258347 -0.547189 255 0 255
-0.0415096 3.49916e-005 -0.557477 0 255 0
-0.0311534 2.81736e-005 -0.556703 0 255 0
-0.0206418 4.23639e-006 -0.555524 0 255 0
-0.0103491 -0.000242716 -0.550902 255 0 255
-6.02269e-005 -0.00033777 -0.55162 255 0 255
0.0095305 -0.00235511 -0.542395 255 0 255
0.0221585 -0.713932 -0.00746103 255 0 255
0.0342296 -0.735801 -0.0126251 0 255 0
0.0133725 -0.726161 -0.0102254 255 0 255
0.0448922 -0.736079 -0.0121166 255 0 255
0.0552327 -0.734359 -0.0113779 255 0 255
0.0662997 -0.737804 -0.0127758 255 0 255
0.077362 -0.742271 -0.0149512 255 0 255
0.0863774 -0.729797 -0.00963355 255 0 255
0.0966439 -0.729507 -0.00922957 255 0 255
0.106888 -0.72737 -0.00787482 255 0 255
