ply
format ascii 1.0
element vertex 27
property float x
property float y
property float z
end_header
-0.021878 0.000608023 0.0409338
0.00221211 -0.834564 0.525791
-0.0224112 -1.39116e-005 0.0894139
0.0438643 -0.808732 0.553144
0.0149715 -0.000293144 0.0364253
0.0690729 -0.841054 0.523516
0.0585798 -0.815885 0.548495
0.0738363 -0.836314 0.535862
0.0882778 -0.841937 0.533916
0.0867243 -0.850853 0.517384
0.0280656 -0.000528946 0.0524838
0.030217 0.000660071 0.0802292
0.0401116 -0.000193644 0.0378732
0.0441365 0.000691469 0.084221
0.051327 0.00014472 0.0248489
0.0566974 0.000212539 0.0906408
0.0647848 0.000476033 0.0284732
0.0700694 0.00163166 0.0853619
0.0770423 0.00119508 0.0266793
0.102496 -0.833695 0.538442
0.089628 0.000937496 0.0259797
0.115606 -0.00035841 0.0340079
0.111303 0.00317757 0.0907934
0.154589 -0.844673 0.520697
0.171998 -0.853371 0.515427
0.159511 -0.844439 0.533939
0.173669 -0.8443 0.534518
