ply
format ascii 1.0
element vertex 38
property float x
property float y
property float z
property uchar diffuse_red
property uchar diffuse_green
property uchar diffuse_blue
end_header
0.676118 28.8352 6.96229 0 255 0
-0.37964 28.6622 7.0786 0 255 0
-0.920776 28.7592 7.04871 0 255 0
0.147573 28.6684 7.04435 0 255 0
1.19544 28.7497 6.97832 0 255 0
-1.47187 29.0192 6.9773 255 0 255
0.553081 27.1713 6.49585 255 0 255
-0.000169211 27.2172 6.51456 255 0 255
1.06986 26.9708 6.53853 255 0 255
-0.542819 27.3862 6.47544 255 0 255
-1.10217 27.6369 6.41503 255 0 255
1.62989 27.4828 6.27304 255 0 255
1.6945 29.0229 6.88156 255 0 255
2.1991 27.5946 6.13907 255 0 255
2.22544 29.2769 6.73227 0 255 0
2.75472 27.6442 6.09841 0 255 0
2.7361 29.3694 6.67 0 255 0
3.25552 29.3322 6.67102 255 0 255
3.31722 27.715 6.0312 255 0 255
3.78005 29.162 6.72384 255 0 255
-0.295572 -0.0541752 -12.7231 255 0 255
-1.97173 -0.0338257 -13.4876 0 255 0
-2.54167 -0.0609341 -13.7805 255 0 255
-1.35327 -0.0662421 -13.0172 255 0 255
-0.824509 -0.0715828 -12.7759 255 0 255
0.219529 -0.0859016 -12.7673 255 0 255
0.708616 -0.0900987 -12.9994 255 0 255
1.22596 -0.114384 -12.9209 255 0 255
1.70731 -0.113741 -13.1336 255 0 255
-3.26851 -0.2894 -15.7709 255 0 255
-3.73672 -0.243908 -15.5117 0 255 0
-3.04097 -0.0883785 -13.2088 255 0 255
-4.26558 -0.15431 -15.6406 255 0 255
-3.54863 -0.100438 -12.863 0 255 0
-4.7254 -0.108537 -15.311 255 0 255
-4.0634 -0.0853401 -12.6299 255 0 255
-5.11106 -0.113359 -14.5189 255 0 255
-5.65302 -0.00401537 -14.2834 255 0 255
