ply
format ascii 1.0
element vertex 27
property float x
property float y
property float z
end_header
-1.47187 29.0192 6.9773
0.553081 27.1713 6.49585
-0.000169211 27.2172 6.51456
1.06986 26.9708 6.53853
-0.542819 27.3862 6.47544
-1.10217 27.6369 6.41503
1.62989 27.4828 6.27304
1.6945 29.0229 6.88156
2.1991 27.5946 6.13907
3.25552 29.3322 6.67102
3.31722 27.715 6.0312
3.78005 29.162 6.72384
-0.295572 -0.0541752 -12.7231
-2.54167 -0.0609341 -13.7805
-1.35327 -0.0662421 -13.0172
-0.824509 -0.0715828 -12.7759
0.219529 -0.0859016 -12.7673
0.708616 -0.0900987 -12.9994
1.22596 -0.114384 -12.9209
1.70731 -0.113741 -13.1336
-3.26851 -0.2894 -15.7709
-3.04097 -0.0883785 -13.2088
-4.26558 -0.15431 -15.6406
-4.7254 -0.108537 -15.311
-4.0634 -0.0853401 -12.6299
-5.11106 -0.113359 -14.5189
-5.65302 -0.00401537 -14.2834
